<svg xmlns="http://www.w3.org/2000/svg"  viewBox="0 0 100 100" width="100px" height="100px"><path fill="#e3e2e3" d="M21.495,81c-1.364,0-2.739-0.428-3.912-1.313c-2.865-2.163-3.434-6.239-1.271-9.104L31.999,50	L16.313,29.417c-2.163-2.865-1.594-6.941,1.271-9.104c2.864-2.161,6.941-1.595,9.104,1.271l19.302,25.391	C46.669,47.868,47,48.934,47,50c0,1.066-0.331,2.132-1.01,3.026L26.688,78.417C25.41,80.109,23.464,81,21.495,81z"/><path fill="#31c4f3" d="M78.504,81c1.364,0,2.739-0.428,3.912-1.313c2.865-2.163,3.434-6.239,1.271-9.104L68,50	l15.687-20.583c2.163-2.865,1.594-6.941-1.271-9.104c-2.864-2.161-6.941-1.595-9.104,1.271L54.01,46.974	C53.331,47.868,53,48.934,53,50c0,1.066,0.331,2.132,1.01,3.026l19.302,25.391C74.59,80.109,76.536,81,78.504,81z"/><path fill="#1f212b" d="M21.495,82c-1.641,0-3.201-0.523-4.515-1.515c-3.3-2.492-3.958-7.204-1.466-10.505L30.742,50	L15.518,30.023c-2.495-3.305-1.837-8.017,1.463-10.509c3.298-2.489,8.013-1.835,10.505,1.466l19.3,25.389	C47.58,47.414,48,48.67,48,50s-0.42,2.586-1.215,3.631L27.483,79.022C26.056,80.914,23.872,82,21.495,82z M21.492,20.003	c-1.154,0-2.316,0.36-3.307,1.107c-2.42,1.828-2.902,5.284-1.075,7.704l15.684,20.579c0.273,0.358,0.273,0.854,0,1.213	L17.107,71.189c-1.824,2.416-1.342,5.872,1.078,7.7c0.963,0.727,2.107,1.11,3.31,1.11c1.744,0,3.346-0.797,4.395-2.186L45.193,52.42	C45.721,51.727,46,50.89,46,50s-0.279-1.727-0.807-2.42L25.892,22.188C24.811,20.757,23.16,20.003,21.492,20.003z"/><path fill="#1f212b" d="M78.505,82c-2.377,0-4.561-1.086-5.99-2.98L53.214,53.631C52.42,52.587,52,51.331,52,50	s0.42-2.587,1.214-3.631l19.303-25.392c2.489-3.298,7.201-3.955,10.503-1.463c3.3,2.492,3.958,7.204,1.466,10.505L69.258,50	l15.225,19.977c2.495,3.305,1.837,8.017-1.463,10.509C81.706,81.477,80.146,82,78.505,82z M78.506,20.002	c-1.667,0-3.315,0.754-4.396,2.184L54.806,47.58C54.278,48.273,54,49.109,54,50s0.278,1.727,0.806,2.42l19.303,25.392	C75.159,79.203,76.761,80,78.505,80c1.202,0,2.347-0.384,3.31-1.11c2.42-1.828,2.902-5.284,1.075-7.704L67.205,50.606	c-0.273-0.358-0.273-0.854,0-1.213l15.688-20.583c1.824-2.416,1.342-5.872-1.078-7.7C80.824,20.363,79.66,20.002,78.506,20.002z"/><path fill="#1f212b" d="M78.5,29.299c-0.106,0-0.213-0.033-0.303-0.103c-0.22-0.167-0.263-0.481-0.095-0.7l1-1.312	c0.168-0.222,0.483-0.262,0.7-0.095c0.22,0.167,0.263,0.481,0.095,0.7l-1,1.312C78.799,29.231,78.65,29.299,78.5,29.299z"/><path fill="#1f212b" d="M79.5,73.013c-0.15,0-0.299-0.067-0.397-0.197L64.023,53.03c-1.359-1.784-1.359-4.276,0-6.061	l6.079-7.977c0.169-0.222,0.483-0.262,0.7-0.095c0.22,0.167,0.263,0.48,0.095,0.7l-6.079,7.977c-1.087,1.428-1.087,3.422,0,4.85	L79.897,72.21c0.168,0.22,0.125,0.533-0.095,0.7C79.713,72.979,79.606,73.013,79.5,73.013z"/><path fill="#1f212b" d="M73.5,35.859c-0.106,0-0.213-0.033-0.303-0.103c-0.22-0.167-0.263-0.481-0.095-0.7l3-3.936	c0.169-0.222,0.482-0.262,0.7-0.095c0.22,0.167,0.263,0.481,0.095,0.7l-3,3.936C73.799,35.792,73.65,35.859,73.5,35.859z"/><path fill="#1f212b" d="M20.5,73.013c-0.106,0-0.213-0.033-0.303-0.103c-0.22-0.167-0.263-0.48-0.095-0.7l1-1.313	c0.166-0.222,0.483-0.262,0.7-0.095c0.22,0.167,0.263,0.48,0.095,0.7l-1,1.313C20.8,72.945,20.65,73.013,20.5,73.013z"/><path fill="#1f212b" d="M29.5,61.203c-0.106,0-0.213-0.033-0.303-0.103c-0.22-0.167-0.263-0.48-0.095-0.7l6.078-7.976	c1.088-1.428,1.088-3.422,0-4.85L20.103,27.791c-0.168-0.22-0.125-0.533,0.095-0.7c0.217-0.168,0.531-0.127,0.7,0.095L35.976,46.97	c1.36,1.784,1.36,4.276,0,6.061l-6.078,7.976C29.799,61.136,29.65,61.203,29.5,61.203z"/><path fill="#1f212b" d="M23.5,69.076c-0.106,0-0.213-0.033-0.303-0.103c-0.22-0.167-0.263-0.48-0.095-0.7l3-3.937	c0.168-0.223,0.483-0.262,0.7-0.095c0.22,0.167,0.263,0.48,0.095,0.7l-3,3.937C23.799,69.009,23.65,69.076,23.5,69.076z"/></svg>